<?xml version="1.0" encoding="utf-8"?>
<!-- Generator: Adobe Illustrator 19.0.0, SVG Export Plug-In . SVG Version: 6.00 Build 0)  -->
<svg version="1.1" xmlns="http://www.w3.org/2000/svg" xmlns:xlink="http://www.w3.org/1999/xlink" x="0px" y="0px"
	 viewBox="0 0 4450 4450" style="enable-background:new 0 0 4450 4450;" xml:space="preserve">
<style type="text/css">
	.st0{fill:#87CDCD;}
	.st1{fill:#949494;}
	.st2{fill:#FBF9FA;}
	.st3{fill:#F37159;}
	.st4{fill:#D1D3D4;}
	.st5{fill:#3C444F;}
	.st6{fill:#E8E8E8;}
	.st7{fill:#C6C6C6;}
	.st8{fill:#FEFCFE;}
	.st9{fill:#44200E;}
	.st10{fill:#67371B;}
	.st11{fill:#3F4D50;}
	.st12{fill:#DDBF9A;}
	.st13{fill:#42310D;}
	.st14{fill:#252A26;}
	.st15{fill:#D6D6D6;}
	.st16{opacity:0.13;fill:#5D5D5D;}
	.st17{opacity:0.19;fill:#A1D0D6;}
</style>
<g id="Layer_2">
</g>
<g id="Layer_3">
	<circle class="st0" cx="2225" cy="2225" r="2225"/>
</g>
<g id="Layer_1">
	<path class="st1" d="M2637.1,1463.5v1738.1c0,60.1-48.7,108.8-108.8,108.8H875.9c-25.8,0-49.5-9-68.1-24
		c-24.8-19.9-40.7-50.5-40.7-84.8V1463.5c0-60.1,48.7-108.8,108.8-108.8h1652.4C2588.3,1354.7,2637.1,1403.4,2637.1,1463.5z"/>
	<path class="st2" d="M3707.2,973.7l-40,69.2l-40-69.2l-40,69.2l-40-69.2l-40,69.2l-40-69.2l-40,69.2l-40-69.2l-40,69.2l-40-69.2
		l-40,69.2l-40-69.2l-40,69.2l-40-69.2l-40,69.2l-40-69.2l-40,69.2l-40-69.2l-40,69.2l-40-69.2l-40,69.2l-40-69.2l-40,69.2l-40-69.2
		l-40,69.2l-40-69.2l-40,69.2l-40-69.2l-40,69.2l-40-69.2l-40,69.2l-40-69.2l-40,69.2l-40-69.2l-40,69.2l-40-69.2l-40,69.2l-40-69.2
		l-40,69.2l-40-69.2l-40,69.2l-40-69.2l-40,69.2l-40-69.2l-40,69.2l-40-69.2l-40,69.2l-40-69.2l-40,69.2l-40-69.2l-40,69.2l-40-69.2
		l-40,69.2l-40-69.2l-40,69.2l-40-69.2l-40,69.2l-40-69.2l-40,69.2l-40-69.2l-40,69.2l-40-69.2l-40,69.2l-40-69.2l-40,69.2l-40-69.2
		l-40,69.2l-36.5-63.3v2147.2c0,86.2-59.4,158.5-139.6,178.2c16.1,3.5,32.8,5.4,49.9,5.4h2573.8c130.2,0,235.7-105.5,235.7-235.7
		v-707.2v-208.5V1112.2v-28.4V981.1L3707.2,973.7z"/>
	<rect x="1253.9" y="2758.9" class="st3" width="2368.2" height="148.9"/>
	<rect x="1256.9" y="2962.9" class="st4" width="2359.3" height="44.2"/>
	<rect x="1256.9" y="3060.4" class="st4" width="2359.3" height="44.2"/>
	<rect x="2505" y="2682.2" class="st4" width="527.7" height="44.2"/>
	<rect x="1253.9" y="1726.9" class="st1" width="2362.3" height="82.1"/>
	<path class="st4" d="M2424.1,2700.6c0,14.2-11.5,25.8-25.8,25.8H1279.7c-14.2,0-25.8-11.5-25.8-25.8v-815.1
		c0-14.2,11.5-25.8,25.8-25.8h1118.6c14.2,0,25.8,11.5,25.8,25.8V2700.6z"/>
	<rect x="2505" y="1870.9" class="st4" width="843.2" height="88.4"/>
	<rect x="2505" y="2006.8" class="st4" width="843.2" height="88.4"/>
	<rect x="2505" y="2142.9" class="st4" width="511.9" height="88.4"/>
	<rect x="2625.8" y="1188.7" class="st5" width="730.4" height="360.9"/>
	<rect x="2505" y="2551.2" class="st4" width="511.9" height="88.4"/>
	<rect x="2505" y="2286" class="st4" width="843.2" height="88.4"/>
	<rect x="2505" y="2422" class="st4" width="843.2" height="88.4"/>
	<rect x="1253.9" y="1188.7" class="st6" width="1251.1" height="494.1"/>
	<g>
		<g>
			<path class="st5" d="M1393,1555.6v-251.5h66.4l52.2,92.2c14.9,26.5,29.8,57.8,41,86.2h1.1c-3.7-33.2-4.9-67.2-4.9-104.8v-73.5
				h52.2v251.5h-59.7l-53.7-97c-14.9-26.9-31.3-59.3-43.7-88.8l-1.1,0.4c1.5,33.2,2.2,68.7,2.2,109.7v75.7H1393z"/>
			<path class="st5" d="M1800,1449.3h-92.5v59.7h103.4v46.6h-160.4v-251.5h155.2v46.6h-98.1v52.2h92.5V1449.3z"/>
			<path class="st5" d="M1892.9,1555.6l-59.7-251.5h60.8l19,103.7c5.6,29.9,10.8,62.3,14.9,87.7h0.7c4.1-27.2,10.1-57.5,16.4-88.4
				l21.3-103h60.4l20.1,106c5.6,29.5,9.7,56.3,13.4,84.3h0.7c3.7-28,9.3-57.5,14.6-87.3l20.5-103h57.8l-64.9,251.5h-61.6
				l-21.3-108.2c-4.9-25.4-9-48.9-11.9-77.6h-0.7c-4.5,28.4-8.6,52.2-14.6,77.6l-23.9,108.2H1892.9z"/>
			<path class="st5" d="M2182.5,1497c15.3,7.8,38.8,15.7,63.1,15.7c26.1,0,39.9-10.8,39.9-27.2c0-15.7-11.9-24.6-42.2-35.4
				c-41.8-14.6-69-37.7-69-74.3c0-42.9,35.8-75.7,95.1-75.7c28.4,0,49.3,6,64.2,12.7l-12.7,45.9c-10.1-4.9-28-11.9-52.6-11.9
				s-36.6,11.2-36.6,24.3c0,16,14.2,23.1,46.6,35.4c44.4,16.4,65.3,39.6,65.3,75c0,42.2-32.5,78-101.5,78
				c-28.7,0-57.1-7.5-71.3-15.3L2182.5,1497z"/>
		</g>
	</g>
</g>
<g id="Layer_5">
	<path class="st7" d="M1173,3185.2c0,27.4-2,54.4-5.8,80.8c-39.1,269-270.7,475.5-550.4,475.5c-8.1,0-16.1-0.2-24-0.5
		c-296.1-12.5-532.3-256.6-532.3-555.7c0-307.3,249.1-556.3,556.4-556.3C923.9,2628.9,1173,2877.9,1173,3185.2z"/>
	<path class="st8" d="M104.9,3229.8H298c0.3,0,0.5-0.2,0.5-0.5v-78.5c0-4.1-3.4-7.5-7.5-7.5H106c-24.1,0-43.8,19.7-43.8,43.8v0
		C62.1,3210.6,81.4,3229.8,104.9,3229.8z"/>
	<circle class="st8" cx="616.7" cy="3185.2" r="333.3"/>
	<path class="st9" d="M891.7,3185.2c0,151.9-123.1,275.1-274.9,275.1c-86.2,0-163.1-39.7-213.5-101.8
		c-38.6-47.2-61.6-107.6-61.6-173.3c0-151.9,123.1-275.1,275.1-275.1c107,0,199.7,61.1,245.1,150.4
		C880.9,3098,891.7,3140.3,891.7,3185.2z"/>
	<path class="st10" d="M891.7,3185.2c0,151.9-123.1,275.1-274.9,275.1c-86.2,0-163.1-39.7-213.5-101.8
		c-19.1-37.4-29.9-79.7-29.9-124.6c0-151.8,123.1-275.1,274.9-275.1c86.2,0,163.1,39.7,213.5,101.8
		C880.9,3098,891.7,3140.3,891.7,3185.2z"/>
</g>
<g id="Layer_6">
	<path class="st11" d="M3898.8,2681.3l-614.1,795.8c-3.8,4.9-3,11.8,1.7,15.4l45.3,35c4.7,3.6,11.5,2.6,15.3-2.3l614.1-795.8
		c0.5-0.7,1-1.4,1.3-2.2l-61.9-47.7C3899.9,2680,3899.3,2680.6,3898.8,2681.3z"/>
	<path class="st12" d="M3962.3,2727.7c0,0,34-100.8,30.5-103.7c-3.5-2.8-92.5,55.8-92.5,55.8L3962.3,2727.7z"/>
	<path class="st13" d="M3983.9,2660.6c0,0,11.4-36,9.4-37.1c-2.5-1.5-33.6,18.4-33.6,18.4L3983.9,2660.6z"/>
	<path class="st14" d="M3338.4,3546.2l41.5-53.4l-70-54.4l-41.5,53.4c-15,19.3-11.5,47.3,7.8,62.2l0,0
		C3295.4,3569,3323.4,3565.5,3338.4,3546.2z"/>
</g>
<g id="Layer_4">
	
		<ellipse transform="matrix(0.998 6.327146e-002 -6.327146e-002 0.998 208.7059 -112.0824)" class="st15" cx="1874" cy="3239.2" rx="32.7" ry="9.2"/>
	
		<ellipse transform="matrix(0.9353 0.3537 -0.3537 0.9353 1405.4329 -785.0764)" class="st15" cx="2850.3" cy="3452.1" rx="31.3" ry="8.8"/>
	<path class="st5" d="M2916.7,3427l-763.4-30.4c-14.3-0.6-28.5,1.6-42,6.3l-260,91.7c-11.5,4.1-20.2,14.2-21.3,26.4
		c-1,10.8,3.8,24,26.7,27.8c8.7,1.4,20.8-1.6,28.9-5.2l216.1-98.4c17.4-7.8,36.5-11.1,55.5-9.6l746.2,60.3L2916.7,3427z"/>
	<path class="st5" d="M1847.5,3198.1l713.5,273.2c13.3,5.1,25.6,12.7,36.1,22.4l202.8,186.8c9,8.3,12.9,21,9.1,32.6
		c-3.4,10.3-13,20.6-35.5,15c-8.5-2.1-18.5-9.7-24.4-16.2l-159.8-175.6c-12.9-14.1-29.2-24.6-47.3-30.7l-709.5-238.9L1847.5,3198.1z
		"/>
	<path class="st5" d="M2870.8,3511.7c6.1-7.6,31.4-1.6,38.1-8.8c11.8-12.7,12.5-58.2,9.6-70.9c-4.7-20.3-28.7-0.5-83.9-38.6
		c-151.9-104.9-389.9-83.7-389.9-83.7c-14.9-10.4-37.2-19-61.4-24c-24-5.5-48-6.9-65.9-3.6c0,0-207.9-117.9-389.6-85.4
		c-66,11.8-79.7-16.1-92.4,0.4c-7.9,10.3-26.2,52-20.7,68.5c3.1,9.4,28.6,14.3,31,23.8c14.4,56.8-35.3,158.1,79.8,223.2
		c115.1,65.1,265.3,56.2,324.3-27.7c44.1-69.8,58.1-139.8,112.5-128.9c1.9,0.3,3.9,0.7,5.4,1c1.5,0.3,3.5,0.8,5.3,1.3
		c54.1,12.6,37.8,82.2,49,163.9c18.9,100.8,152,171.1,283.7,159.6C2837.4,3670.3,2834.1,3557.4,2870.8,3511.7z M2038.4,3522.4
		c-15.1-3.3-30-7.1-44.3-11.8c-12.8-4.2-25.1-9.1-36.6-14.7c-5.4-2.7-10.6-5.5-15.6-8.6c-19-11.6-34.7-26-45.2-44.2
		c-6.3-10.8-10.1-23.7-12.2-37.5c-4-26-1.5-55,3.5-78.2c7.7-35.3,16.5-62.4,45.7-83.4c25.1-18,58.7-21.8,94.6-19.2
		c23.7,1.7,48.4,6.3,72.1,11.4c10.9,2.4,22.2,5.2,33.5,8.5c5.5,1.6,11.1,3.3,16.6,5.1c11.5,3.8,22.8,8,33.8,12.8
		c44.1,19.1,81.9,46,94,81.4c4.7,13.6-11.4,52.4-17.8,69.2C2229.2,3495.4,2140,3544.5,2038.4,3522.4z M2598.9,3644.3
		c-17.2-3.7-33.2-9.1-47.9-16c-11.8-5.5-22.8-12-33-19.2c-4.2-3-8.3-6.2-12.2-9.5c-26.8-22.6-46.1-51.4-56.2-83.1
		c-6.5-20.4-9.3-42-7.9-63.9c1.1-17.9,2.6-60,12.5-70.5c27.6-29.3,78.2-37.3,130.1-34.8c26.2,1.2,52.7,5.2,76.9,10.4
		c10.2,2.2,20.5,4.6,30.6,7.2c5.9,1.5,11.7,3.1,17.5,4.8c11.9,3.6,23.5,7.6,34.5,12.2c28.5,12.1,52.6,28.4,66.2,52
		c17.9,31.2,14.8,59.6,7.1,95c-7.7,35.5-26.5,80.8-55.9,101.8C2719.3,3660.5,2658.6,3657.2,2598.9,3644.3z"/>
	<path class="st16" d="M2278.3,3344.1c-19.5-57.1-106.1-92.2-177.9-107.8c-59.7-13-125-22.1-166.7,7.8c-29.2,21-38.1,48.1-45.7,83.4
		c-7.7,35.4-9.4,84.4,8.7,115.6c25.6,44.3,82.1,66.4,141.7,79.4c101.6,22,190.8-27,222.2-109.2
		C2266.9,3396.5,2283,3357.7,2278.3,3344.1z"/>
	<path class="st16" d="M2817,3528.9c7.7-35.4,10.9-63.8-7.1-95c-25.6-44.6-88.9-63.3-148.8-76.3c-72-15.6-165.5-19.6-207,24.4
		c-9.9,10.5-11.4,52.6-12.5,70.5c-5.5,87.9,55.5,169.7,157.3,191.8c59.7,12.9,120.4,16.2,162.2-13.6
		C2790.5,3609.7,2809.3,3564.4,2817,3528.9z"/>
	<path class="st17" d="M1941.9,3487.3c-19-11.6-34.7-26-45.2-44.2c-6.3-10.8-10.1-23.7-12.2-37.5l143.8-180.7
		c23.7,1.7,48.4,6.3,72.1,11.4c10.9,2.4,22.2,5.2,33.5,8.5L1941.9,3487.3z"/>
	<path class="st17" d="M1994.1,3510.6c-12.8-4.2-25.1-9.1-36.6-14.7l193.1-246c11.5,3.8,22.8,8,33.8,12.8L1994.1,3510.6z"/>
	<path class="st17" d="M2505.8,3599.5c-26.8-22.6-46.1-51.4-56.2-83.1l134.7-169.3c26.2,1.2,52.7,5.2,76.9,10.4
		c10.2,2.2,20.5,4.6,30.6,7.2L2505.8,3599.5z"/>
	<path class="st17" d="M2550.9,3628.3c-11.8-5.5-22.8-12-33-19.2l191.2-239.4c11.9,3.6,23.5,7.6,34.5,12.2L2550.9,3628.3z"/>
</g>
</svg>
